<svg xmlns="http://www.w3.org/2000/svg" xmlns:xlink="http://www.w3.org/1999/xlink" version="1.1" x="0px" y="0px" style="enable-background:new 0 0 500 500;" xml:space="preserve" viewBox="124.92 96.28 250.15 187.08">
<g id="BACKGROUND">
</g>
<g id="OBJECTS">
	<path style="fill:#DEEEFF;" d="M213.976,224.777c19.427,11.91,42.868,16.419,65.608,14.949c22.74-1.47,44.841-8.667,65.296-18.709   c8.448-4.147,17.076-9.192,21.637-17.424c4.562-8.232,3.18-20.42-5.154-24.793c-2.738-1.437-5.88-1.896-8.741-3.071   c-2.86-1.175-5.641-3.453-5.919-6.532c-0.362-4.003,3.424-6.946,5.936-10.083c5.305-6.623,5.348-16.385,1.848-24.114   c-3.5-7.73-9.992-13.711-16.915-18.617c-21.951-15.558-50.061-22.16-76.643-18.002c-26.582,4.158-51.333,19.029-67.485,40.547   c-9.907,13.198-14.127,30.826-9.909,46.781C187.755,201.663,199.907,216.152,213.976,224.777z"/>
	<g>
		<g>
			<path style="fill:none;stroke:#060305;stroke-width:3;stroke-linecap:round;stroke-miterlimit:10;" d="M216.751,140.393     c3.561-1.954,8.442-1.091,11.074,2.004c2.633,3.095,2.687,8.106,0.078,11.222c-1.957,2.337-5.251,3.373-8.22,2.823     c-1.637-0.303-3.249,0.603-3.678,2.214l-0.896,3.366"/>
			<path style="fill:none;stroke:#060305;stroke-width:3;stroke-linecap:round;stroke-miterlimit:10;" d="M248.143,196.894     l-80.582-21.113c-5.091-1.334-5.456-8.462-0.517-10.284c30.969-11.419,68.571-3.019,86.893,23.096     C256.813,192.692,252.982,198.162,248.143,196.894z"/>
		</g>
		<g>
			<g>
				<path style="fill:#E73A3C;" d="M240.764,280.493l-3.345-58.004l-29.248-20.981l-43.238,1.532l-40.01,38.79      c1.543,7.031,5.158,14.258,11.489,17.682c6.331,3.424,14.162,3.944,20.89,1.386c5.407-2.056,11.464-5.964,16.374-2.906      c4.903,3.053,5.051,11.46,10.55,13.226c3.49,1.121,7.04-1.204,10.126-3.183c3.086-1.978,7.228-3.693,10.212-1.564      c2.399,1.712,2.775,5.046,3.957,7.745c2.248,5.13,7.8,8.188,13.345,8.978C227.412,283.984,235.271,281.591,240.764,280.493z"/>
				<path style="fill:none;stroke:#060305;stroke-width:1.5;stroke-linecap:round;stroke-linejoin:round;stroke-miterlimit:10;" d="      M172.773,204.872c-6.396,6.574-12.792,13.149-19.189,19.723"/>
				<path style="fill:none;stroke:#060305;stroke-width:1.5;stroke-linecap:round;stroke-linejoin:round;stroke-miterlimit:10;" d="      M178.468,205.81c-4.34,5.622-8.679,11.244-13.019,16.865"/>
				<path style="fill:none;stroke:#060305;stroke-width:1.5;stroke-linecap:round;stroke-linejoin:round;stroke-miterlimit:10;" d="      M220.117,216.727c-1.595,5.759-3.189,11.518-4.784,17.277"/>
			</g>
			<g>
				<path style="fill:#FFB800;" d="M227.118,162.765l43.148,18.916l-13.571,31.485l-15.265-7.238l-4.012,16.561l-72.486-19.449      l4.258-17.287l-12.889-1.635l3.652-31.999l45.348,5.374c-1.104,3.761,0.254,7.588,3.002,10.384      c2.748,2.795,7.05,3.952,10.83,2.913C222.914,169.75,226.186,166.573,227.118,162.765z"/>
				<path style="fill:none;stroke:#060305;stroke-width:1.5;stroke-linecap:round;stroke-linejoin:round;stroke-miterlimit:10;" d="      M240.875,205.779c0.761-1.325,1.522-2.649,2.284-3.974"/>
				<path style="fill:none;stroke:#060305;stroke-width:1.5;stroke-linecap:round;stroke-linejoin:round;stroke-miterlimit:10;" d="      M169.388,182.225c-0.262,1.398-0.524,2.795-0.786,4.193"/>
				<path style="fill:none;stroke:#060305;stroke-width:1.5;stroke-linecap:round;stroke-linejoin:round;stroke-miterlimit:10;" d="      M165.043,154.205c-1.714,9.964-3.427,19.927-5.141,29.891"/>
			</g>
			<g>
				<circle style="fill:#060305;" cx="187.259" cy="192.707" r="2.227"/>
				<path style="fill:#060305;" d="M224.412,201.508c0-1.23-0.997-2.227-2.227-2.227c-1.23,0-2.227,0.997-2.227,2.227      c0,1.23,0.997,2.227,2.227,2.227C223.414,203.736,224.412,202.738,224.412,201.508z"/>
				<path style="fill:none;stroke:#060305;stroke-width:1.5;stroke-linecap:round;stroke-linejoin:round;stroke-miterlimit:10;" d="      M200.629,195.87c-0.604,1.907,0.46,4.189,2.309,4.953c1.849,0.764,4.213-0.102,5.131-1.879"/>
				<path style="fill:none;stroke:#060305;stroke-width:1.5;stroke-linecap:round;stroke-linejoin:round;stroke-miterlimit:10;" d="      M185.201,180.754c0.597-2.072,2.836-3.531,4.973-3.241c2.137,0.29,3.906,2.293,3.929,4.449"/>
				<path style="fill:none;stroke:#060305;stroke-width:1.5;stroke-linecap:round;stroke-linejoin:round;stroke-miterlimit:10;" d="      M221.546,187.158c2.459,0.554,4.917,1.109,7.376,1.663"/>
			</g>
		</g>
	</g>
	<g>
		<polygon style="fill:#FFB800;" points="337.769,96.275 331.769,106.667 343.769,106.667   "/>
		<polygon style="fill:#97B8FF;" points="132.102,199.41 138.102,189.018 126.102,189.018   "/>
		<circle style="fill:#97B8FF;" cx="242.842" cy="132.671" r="2"/>
		<circle style="fill:#FFB800;" cx="373.077" cy="168.609" r="2"/>
		<circle style="fill:#4D57FF;" cx="306.701" cy="121.22" r="2"/>
		<path style="fill:#4D57FF;" d="M186.663,124.024c-3.807-7.994-12.944,3.083,0,8.647    C199.607,127.106,190.47,116.03,186.663,124.024z"/>
	</g>
	<g>
		<g>
			<path style="fill:none;stroke:#060305;stroke-width:3;stroke-linecap:round;stroke-miterlimit:10;" d="M276.668,127.599     c-3.506-2.059-8.419-1.342-11.147,1.673c-2.728,3.016-2.932,8.023-0.413,11.214c1.889,2.394,5.156,3.528,8.145,3.067     c1.648-0.254,3.235,0.699,3.617,2.322l0.797,3.391"/>
			<path style="fill:none;stroke:#060305;stroke-width:3;stroke-linecap:round;stroke-miterlimit:10;" d="M243.553,183.14     l81.305-18.703c5.137-1.182,5.715-8.296,0.824-10.264c-30.664-12.337-68.56-5.061-87.683,20.497     C234.998,178.682,238.67,184.264,243.553,183.14z"/>
		</g>
		<g>
			<path style="fill:#4D57FF;" d="M245.125,178.818l76.043-16.923l23.53,81.969l-37.473,11.08l-4.568-9.136     c-1.212-2.424-4.879-1.406-4.668,1.296l0.694,8.888l-39.283,7.075L245.125,178.818z"/>
			<g>
				<path style="fill:#060305;" d="M273.804,213.555c0-1.23-0.997-2.227-2.227-2.227c-1.23,0-2.227,0.997-2.227,2.227      c0,1.23,0.997,2.228,2.227,2.228C272.807,215.783,273.804,214.786,273.804,213.555z"/>
				<circle style="fill:#060305;" cx="311.298" cy="205.042" r="2.227"/>
				<path style="fill:#FFFFFF;" d="M301.1,209.845l-8.823,2.519c0.649,2.322,3.36,3.839,5.678,3.177      C300.274,214.878,301.775,212.159,301.1,209.845z"/>
				<path style="fill:none;stroke:#060305;stroke-width:1.5;stroke-linecap:round;stroke-linejoin:round;stroke-miterlimit:10;" d="      M263.321,202.933c-0.059-1.413,0.74-2.828,1.98-3.507c1.241-0.679,2.863-0.59,4.021,0.221"/>
				<path style="fill:none;stroke:#060305;stroke-width:1.5;stroke-linecap:round;stroke-linejoin:round;stroke-miterlimit:10;" d="      M306.701,189.824c2.096,0,4.193,0,6.289,0"/>
			</g>
			<g>
				<path style="fill:none;stroke:#060305;stroke-width:1.5;stroke-linecap:round;stroke-linejoin:round;stroke-miterlimit:10;" d="      M248.337,188.309c25.255-5.719,50.509-11.437,75.764-17.156"/>
				<path style="fill:none;stroke:#060305;stroke-width:1.5;stroke-linecap:round;stroke-linejoin:round;stroke-miterlimit:10;" d="      M255.783,187.214c0.93,7.306-1.071,14.944-5.463,20.856"/>
				<path style="fill:none;stroke:#060305;stroke-width:1.5;stroke-linecap:round;stroke-linejoin:round;stroke-miterlimit:10;" d="      M313.417,174.316c2.078,7.16,8.251,12.973,15.523,14.619"/>
				<path style="fill:none;stroke:#060305;stroke-width:1.5;stroke-linecap:round;stroke-linejoin:round;stroke-miterlimit:10;" d="      M306.442,250.893c12.569-3.441,25.138-6.881,37.707-10.322"/>
				<path style="fill:none;stroke:#060305;stroke-width:1.5;stroke-linecap:round;stroke-linejoin:round;stroke-miterlimit:10;" d="      M259.572,259.02c12.74-1.837,25.48-3.673,38.22-5.51"/>
				<path style="fill:none;stroke:#060305;stroke-width:1.5;stroke-linecap:round;stroke-linejoin:round;stroke-miterlimit:10;" d="      M282.057,181.443c1.064,3.139,2.127,6.279,3.191,9.418c1.835-0.435,3.899-1.111,5.734-1.546      c-0.035-3.406-0.453-6.826-0.488-10.232"/>
			</g>
		</g>
	</g>
</g>
</svg>